<?xml version="1.0" encoding="UTF-8"?>
<svg width="51px" height="57px" viewBox="0 0 51 57" version="1.1" xmlns="http://www.w3.org/2000/svg" xmlns:xlink="http://www.w3.org/1999/xlink">
    <!-- Generator: Sketch 62 (91390) - https://sketch.com -->
    <title>Add Icon</title>
    <desc>Created with Sketch.</desc>
    <g id="Page-1" stroke="none" stroke-width="1" fill="none" fill-rule="evenodd">
        <g id="iPhone-11-Pro-Max" transform="translate(-182.000000, -797.000000)" fill="#80252E">
            <g id="Add-Icon" transform="translate(182.000000, 797.000000)">
                <path d="M25.5,0 C28.2614237,0 30.5,2.23857625 30.5,5 L30.5,23.5 L46,23.5 C48.7614237,23.5 51,25.7385763 51,28.5 C51,31.2614237 48.7614237,33.5 46,33.5 L30.5,33.5 L30.5,52 C30.5,54.7614237 28.2614237,57 25.5,57 C22.7385763,57 20.5,54.7614237 20.5,52 L20.5,33.5 L5,33.5 C2.23857625,33.5 3.38176876e-16,31.2614237 0,28.5 C-3.38176876e-16,25.7385763 2.23857625,23.5 5,23.5 L20.5,23.5 L20.5,5 C20.5,2.23857625 22.7385763,0 25.5,0 Z" id="Combined-Shape"></path>
            </g>
        </g>
    </g>
</svg>